<svg xmlns="http://www.w3.org/2000/svg" viewBox="0 0 64 64" width="64" height="64">
  <rect width="64" height="64" fill="#4CAF50" />
  <path d="M32 12C24.268 12 18 18.268 18 26c0 7.732 6.268 14 14 14s14-6.268 14-14c0-7.732-6.268-14-14-14zm0 24c-5.523 0-10-4.477-10-10s4.477-10 10-10 10 4.477 10 10-4.477 10-10 10z" fill="#FFFFFF"/>
  <path d="M32 0C14.355 0 0 14.355 0 32s14.355 32 32 32 32-14.355 32-32S49.645 0 32 0zm0 60C15.664 60 4 48.336 4 32S15.664 4 32 4s28 11.664 28 28-11.664 28-28 28z" fill="#FFFFFF"/>
</svg>