<svg xmlns="http://www.w3.org/2000/svg" viewBox="0 0 64 64" width="64" height="64">
  <path d="M32 2C15.4 2 2 15.4 2 32c0 16.6 13.4 30 30 30s30-13.4 30-30C62 15.4 48.6 2 32 2zm0 56c-14.4 0-26-11.6-26-26S17.6 6 32 6s26 11.6 26 26-11.6 26-26 26z" fill="#4CAF50"/>
  <path d="M32 10c-12.2 0-22 9.8-22 22s9.8 22 22 22 22-9.8 22-22-9.8-22-22-22zm0 40c-9.9 0-18-8.1-18-18s8.1-18 18-18 18 8.1 18 18-8.1 18-18 18z" fill="#FFF"/>
  <path d="M32 14c-9.4 0-17 7.6-17 17s7.6 17 17 17 17-7.6 17-17-7.6-17-17-17zm0 30c-7.2 0-13-5.8-13-13s5.8-13 13-13 13 5.8 13 13-5.8 13-13 13z" fill="#4CAF50"/>
  <path d="M32 18c-7.2 0-13 5.8-13 13s5.8 13 13 13 13-5.8 13-13-5.8-13-13-13zm0 24c-6.1 0-11-4.9-11-11s4.9-11 11-11 11 4.9 11 11-4.9 11-11 11z" fill="#FFF"/>
</svg>